# xmcd
#
# Track frame offsets: 
#        150
#        13860
#        30140
#        43002
#        58180
#        78652
#        93445
#        114707
#        130717
#        148710
#        166210
#        191762
#        211037
#        226360
#        243302
#        258720
#
# Disc length: 3591 seconds
#
# Revision: 2
# Processed by: cddbd v1.5.2PL0 Copyright (c) Steve Scherf et al.
# Submitted via: ExactAudioCopyFreeDBPlugin 1.0
#
DISCID=da0e0510
DTITLE=Mark Hummel - Feel Like Rockin'
DYEAR=1994
DGENRE=Blues
TTITLE0=Rockin' All The Time
TTITLE1=So Darn Cute
TTITLE2=Georgia Slop
TTITLE3=Learned My Lesson (Changed My Ways)
TTITLE4=Everything
TTITLE5=Nickles and Dimes
TTITLE6=Lost In The Shuffle
TTITLE7=Bad Luck Blues
TTITLE8=I'm Gonna Quit
TTITLE9=Where You At
TTITLE10=City Livin'
TTITLE11=Coast To Coast
TTITLE12=Worried Mind
TTITLE13=Last Time In Florida
TTITLE14=Third Time Out
TTITLE15=When I'm Not With You
EXTD=
EXTT0=
EXTT1=
EXTT2=
EXTT3=
EXTT4=
EXTT5=
EXTT6=
EXTT7=
EXTT8=
EXTT9=
EXTT10=
EXTT11=
EXTT12=
EXTT13=
EXTT14=
EXTT15=
PLAYORDER=
